<mxfile host="65bd71144e">
    <diagram id="GUkRdUyIuSBApQzKnwvI" name="Page-1">
        <mxGraphModel dx="793" dy="240" grid="1" gridSize="5" guides="1" tooltips="1" connect="1" arrows="1" fold="1" page="0" pageScale="1" pageWidth="1169" pageHeight="827" math="0" shadow="0">
            <root>
                <mxCell id="0"/>
                <mxCell id="1" parent="0"/>
                <mxCell id="59" style="edgeStyle=none;html=1;exitX=1;exitY=0;exitDx=0;exitDy=0;entryX=0;entryY=0;entryDx=0;entryDy=0;endArrow=none;endFill=0;" edge="1" parent="1" source="25" target="26">
                    <mxGeometry relative="1" as="geometry"/>
                </mxCell>
                <mxCell id="60" style="edgeStyle=none;html=1;exitX=1;exitY=1;exitDx=0;exitDy=0;entryX=0;entryY=1;entryDx=0;entryDy=0;endArrow=none;endFill=0;" edge="1" parent="1" source="25" target="26">
                    <mxGeometry relative="1" as="geometry"/>
                </mxCell>
                <mxCell id="25" value="" style="rounded=0;whiteSpace=wrap;html=1;fillColor=#d5e8d4;strokeColor=#82b366;" parent="1" vertex="1">
                    <mxGeometry x="220" y="220" width="40" height="200" as="geometry"/>
                </mxCell>
                <mxCell id="26" value="" style="rounded=0;whiteSpace=wrap;html=1;fillColor=#dae8fc;strokeColor=#6c8ebf;" parent="1" vertex="1">
                    <mxGeometry x="660" y="220" width="40" height="200" as="geometry"/>
                </mxCell>
                <mxCell id="27" value="Southbridge" style="rounded=0;whiteSpace=wrap;html=1;" parent="1" vertex="1">
                    <mxGeometry x="400" y="280" width="120" height="40" as="geometry"/>
                </mxCell>
                <mxCell id="28" value="Power" style="rounded=0;whiteSpace=wrap;html=1;fontSize=8;align=left;" parent="1" vertex="1">
                    <mxGeometry x="220" y="220" width="35" height="15" as="geometry"/>
                </mxCell>
                <mxCell id="29" value="Power" style="rounded=0;whiteSpace=wrap;html=1;fontSize=8;align=right;" parent="1" vertex="1">
                    <mxGeometry x="665" y="220" width="35" height="15" as="geometry"/>
                </mxCell>
                <mxCell id="35" style="edgeStyle=none;html=1;exitX=1;exitY=0.5;exitDx=0;exitDy=0;entryX=0;entryY=0.5;entryDx=0;entryDy=0;endArrow=none;endFill=0;rounded=0;" parent="1" source="31" target="33" edge="1">
                    <mxGeometry relative="1" as="geometry"/>
                </mxCell>
                <mxCell id="36" value="Fast Path" style="edgeLabel;html=1;align=center;verticalAlign=middle;resizable=0;points=[];fontSize=8;rounded=0;" parent="35" vertex="1" connectable="0">
                    <mxGeometry x="-0.0397" y="-2" relative="1" as="geometry">
                        <mxPoint x="8" y="-4" as="offset"/>
                    </mxGeometry>
                </mxCell>
                <mxCell id="31" value="Audio" style="rounded=0;whiteSpace=wrap;html=1;fontSize=8;align=left;" parent="1" vertex="1">
                    <mxGeometry x="220" y="235" width="35" height="15" as="geometry"/>
                </mxCell>
                <mxCell id="37" style="edgeStyle=none;html=1;exitX=1;exitY=0.5;exitDx=0;exitDy=0;entryX=0;entryY=0.5;entryDx=0;entryDy=0;endArrow=none;endFill=0;rounded=0;startArrow=classic;startFill=1;" parent="1" source="32" target="34" edge="1">
                    <mxGeometry relative="1" as="geometry"/>
                </mxCell>
                <mxCell id="38" value="Fast Path" style="edgeLabel;html=1;align=center;verticalAlign=middle;resizable=0;points=[];fontSize=8;rounded=0;" parent="37" vertex="1" connectable="0">
                    <mxGeometry x="0.0606" y="2" relative="1" as="geometry">
                        <mxPoint x="-12" y="2" as="offset"/>
                    </mxGeometry>
                </mxCell>
                <mxCell id="32" value="Video" style="rounded=0;whiteSpace=wrap;html=1;fontSize=8;align=left;" parent="1" vertex="1">
                    <mxGeometry x="220" y="250" width="35" height="15" as="geometry"/>
                </mxCell>
                <mxCell id="33" value="Audio" style="rounded=0;whiteSpace=wrap;html=1;fontSize=8;align=right;" parent="1" vertex="1">
                    <mxGeometry x="665" y="235" width="35" height="15" as="geometry"/>
                </mxCell>
                <mxCell id="34" value="Video" style="rounded=0;whiteSpace=wrap;html=1;fontSize=8;align=right;" parent="1" vertex="1">
                    <mxGeometry x="665" y="250" width="35" height="15" as="geometry"/>
                </mxCell>
                <mxCell id="42" style="edgeStyle=none;html=1;exitX=0;exitY=0.5;exitDx=0;exitDy=0;entryX=1;entryY=0.5;entryDx=0;entryDy=0;fontSize=8;endArrow=none;endFill=0;strokeColor=default;rounded=0;" parent="1" source="39" target="27" edge="1">
                    <mxGeometry relative="1" as="geometry">
                        <Array as="points">
                            <mxPoint x="540" y="273"/>
                            <mxPoint x="540" y="300"/>
                        </Array>
                    </mxGeometry>
                </mxCell>
                <mxCell id="39" value="Generic" style="rounded=0;whiteSpace=wrap;html=1;fontSize=8;align=right;" parent="1" vertex="1">
                    <mxGeometry x="665" y="265" width="35" height="15" as="geometry"/>
                </mxCell>
                <mxCell id="41" style="edgeStyle=none;html=1;exitX=1;exitY=0.5;exitDx=0;exitDy=0;entryX=0;entryY=0.5;entryDx=0;entryDy=0;fontSize=8;endArrow=none;endFill=0;rounded=0;shape=link;width=-1.5999999999999996;" parent="1" source="40" target="27" edge="1">
                    <mxGeometry relative="1" as="geometry">
                        <Array as="points">
                            <mxPoint x="380" y="273"/>
                            <mxPoint x="380" y="300"/>
                        </Array>
                    </mxGeometry>
                </mxCell>
                <mxCell id="40" value="Generic" style="rounded=0;whiteSpace=wrap;html=1;fontSize=8;align=left;" parent="1" vertex="1">
                    <mxGeometry x="220" y="265" width="35" height="15" as="geometry"/>
                </mxCell>
                <mxCell id="47" style="edgeStyle=none;shape=link;rounded=0;html=1;exitX=1;exitY=0.5;exitDx=0;exitDy=0;strokeColor=default;fontSize=8;endArrow=none;endFill=0;width=-1.333333333333334;entryX=0;entryY=0.2;entryDx=0;entryDy=0;entryPerimeter=0;" parent="1" source="46" target="48" edge="1">
                    <mxGeometry relative="1" as="geometry">
                        <mxPoint x="360" y="287.6" as="targetPoint"/>
                        <Array as="points">
                            <mxPoint x="360" y="288"/>
                            <mxPoint x="360" y="345"/>
                        </Array>
                    </mxGeometry>
                </mxCell>
                <mxCell id="46" value="I²C" style="rounded=0;whiteSpace=wrap;html=1;fontSize=8;align=left;" parent="1" vertex="1">
                    <mxGeometry x="220" y="280" width="35" height="15" as="geometry"/>
                </mxCell>
                <mxCell id="68" style="edgeStyle=none;rounded=0;html=1;exitX=0;exitY=0.8;exitDx=0;exitDy=0;exitPerimeter=0;entryX=1;entryY=0.5;entryDx=0;entryDy=0;startArrow=none;startFill=0;endArrow=none;endFill=0;" edge="1" parent="1" source="48" target="67">
                    <mxGeometry relative="1" as="geometry"/>
                </mxCell>
                <mxCell id="48" value="I²C&lt;br&gt;Switch" style="rounded=0;whiteSpace=wrap;html=1;points=[[0,0,0,0,0],[0,0.2,0,0,0],[0,0.4,0,0,0],[0,0.6,0,0,0],[0,0.8,0,0,0],[0,1,0,0,0],[0.25,0,0,0,0],[0.25,1,0,0,0],[0.5,0,0,0,0],[0.5,1,0,0,0],[0.75,0,0,0,0],[0.75,1,0,0,0],[1,0,0,0,0],[1,0.25,0,0,0],[1,0.5,0,0,0],[1,0.75,0,0,0],[1,1,0,0,0]];fontSize=8;" parent="1" vertex="1">
                    <mxGeometry x="440" y="330" width="40" height="80" as="geometry"/>
                </mxCell>
                <mxCell id="50" style="edgeStyle=none;rounded=0;html=1;exitX=0;exitY=0.5;exitDx=0;exitDy=0;entryX=1;entryY=0.5;entryDx=0;entryDy=0;strokeColor=default;fontSize=8;endArrow=none;endFill=0;" parent="1" source="49" target="48" edge="1">
                    <mxGeometry relative="1" as="geometry">
                        <Array as="points">
                            <mxPoint x="560" y="288"/>
                            <mxPoint x="560" y="370"/>
                        </Array>
                    </mxGeometry>
                </mxCell>
                <mxCell id="49" value="I²C" style="rounded=0;whiteSpace=wrap;html=1;fontSize=8;align=right;" parent="1" vertex="1">
                    <mxGeometry x="665" y="280" width="35" height="15" as="geometry"/>
                </mxCell>
                <mxCell id="57" style="edgeStyle=none;rounded=0;html=1;exitX=1;exitY=0.5;exitDx=0;exitDy=0;entryX=0;entryY=0.5;entryDx=0;entryDy=0;strokeColor=default;fontSize=8;endArrow=none;endFill=0;shape=link;width=-2.4000000000000004;" parent="1" source="51" target="53" edge="1">
                    <mxGeometry relative="1" as="geometry">
                        <Array as="points">
                            <mxPoint x="270" y="303"/>
                            <mxPoint x="270" y="310"/>
                        </Array>
                    </mxGeometry>
                </mxCell>
                <mxCell id="51" value="IRQ" style="rounded=0;whiteSpace=wrap;html=1;fontSize=8;align=left;" parent="1" vertex="1">
                    <mxGeometry x="220" y="295" width="35" height="15" as="geometry"/>
                </mxCell>
                <mxCell id="58" style="edgeStyle=none;rounded=0;html=1;exitX=1;exitY=0.5;exitDx=0;exitDy=0;entryX=0;entryY=0.5;entryDx=0;entryDy=0;strokeColor=default;fontSize=8;endArrow=none;endFill=0;shape=link;width=-2;" parent="1" source="52" target="54" edge="1">
                    <mxGeometry relative="1" as="geometry">
                        <Array as="points">
                            <mxPoint x="270" y="318"/>
                            <mxPoint x="270" y="350"/>
                        </Array>
                    </mxGeometry>
                </mxCell>
                <mxCell id="52" value="Detect" style="rounded=0;whiteSpace=wrap;html=1;fontSize=8;align=left;" parent="1" vertex="1">
                    <mxGeometry x="220" y="310" width="35" height="15" as="geometry"/>
                </mxCell>
                <mxCell id="55" style="edgeStyle=none;rounded=0;html=1;exitX=1;exitY=0.5;exitDx=0;exitDy=0;entryX=0;entryY=0.4;entryDx=0;entryDy=0;strokeColor=default;fontSize=8;endArrow=none;endFill=0;entryPerimeter=0;" parent="1" source="53" target="48" edge="1">
                    <mxGeometry relative="1" as="geometry">
                        <Array as="points">
                            <mxPoint x="340" y="310"/>
                            <mxPoint x="340" y="362"/>
                        </Array>
                    </mxGeometry>
                </mxCell>
                <mxCell id="53" value="IRQ Controller" style="rounded=0;whiteSpace=wrap;html=1;fontSize=8;" parent="1" vertex="1">
                    <mxGeometry x="280" y="300" width="40" height="20" as="geometry"/>
                </mxCell>
                <mxCell id="56" style="edgeStyle=none;rounded=0;html=1;exitX=1;exitY=0.5;exitDx=0;exitDy=0;entryX=0;entryY=0.6;entryDx=0;entryDy=0;strokeColor=default;fontSize=8;endArrow=none;endFill=0;entryPerimeter=0;" parent="1" source="54" target="48" edge="1">
                    <mxGeometry relative="1" as="geometry">
                        <Array as="points">
                            <mxPoint x="330" y="350"/>
                            <mxPoint x="330" y="378"/>
                        </Array>
                    </mxGeometry>
                </mxCell>
                <mxCell id="54" value="I²C GPIO" style="rounded=0;whiteSpace=wrap;html=1;fontSize=8;" parent="1" vertex="1">
                    <mxGeometry x="280" y="340" width="40" height="20" as="geometry"/>
                </mxCell>
                <mxCell id="65" style="edgeStyle=none;html=1;exitX=0;exitY=0.5;exitDx=0;exitDy=0;entryX=1;entryY=0.5;entryDx=0;entryDy=0;startArrow=none;startFill=0;endArrow=none;endFill=0;rounded=0;" edge="1" parent="1" source="61" target="63">
                    <mxGeometry relative="1" as="geometry">
                        <Array as="points">
                            <mxPoint x="640" y="303"/>
                            <mxPoint x="640" y="310"/>
                        </Array>
                    </mxGeometry>
                </mxCell>
                <mxCell id="61" value="USB" style="rounded=0;whiteSpace=wrap;html=1;fontSize=8;align=right;" vertex="1" parent="1">
                    <mxGeometry x="665" y="295" width="35" height="15" as="geometry"/>
                </mxCell>
                <mxCell id="62" value="USB" style="rounded=0;whiteSpace=wrap;html=1;fontSize=8;align=right;" vertex="1" parent="1">
                    <mxGeometry x="665" y="310" width="35" height="15" as="geometry"/>
                </mxCell>
                <mxCell id="63" value="USB A" style="rounded=0;whiteSpace=wrap;html=1;fontSize=8;" vertex="1" parent="1">
                    <mxGeometry x="580" y="300" width="40" height="20" as="geometry"/>
                </mxCell>
                <mxCell id="66" style="edgeStyle=none;rounded=0;html=1;exitX=1;exitY=0.5;exitDx=0;exitDy=0;entryX=0;entryY=0.5;entryDx=0;entryDy=0;startArrow=none;startFill=0;endArrow=none;endFill=0;" edge="1" parent="1" source="64" target="62">
                    <mxGeometry relative="1" as="geometry">
                        <Array as="points">
                            <mxPoint x="640" y="340"/>
                            <mxPoint x="640" y="318"/>
                        </Array>
                    </mxGeometry>
                </mxCell>
                <mxCell id="64" value="USB A" style="rounded=0;whiteSpace=wrap;html=1;fontSize=8;" vertex="1" parent="1">
                    <mxGeometry x="580" y="330" width="40" height="20" as="geometry"/>
                </mxCell>
                <mxCell id="67" value="Header" style="rounded=0;whiteSpace=wrap;html=1;fontSize=8;" vertex="1" parent="1">
                    <mxGeometry x="380" y="384" width="40" height="20" as="geometry"/>
                </mxCell>
            </root>
        </mxGraphModel>
    </diagram>
</mxfile>